<?xml version="1.0" standalone="no"?><!DOCTYPE svg PUBLIC "-//W3C//DTD SVG 1.1//EN" "http://www.w3.org/Graphics/SVG/1.1/DTD/svg11.dtd"><svg t="1726205740390" class="icon" viewBox="0 0 1024 1024" version="1.1" xmlns="http://www.w3.org/2000/svg" p-id="5606" xmlns:xlink="http://www.w3.org/1999/xlink" width="200" height="200"><path d="M858 247.456V126.213C858 91.302 827.018 63 788.068 63h-555.39C193.728 63 162 91.302 162 126.213v121.224c-33 5.138-58 31.053-58 62.271v50.044c0 31.218 25 57.133 58 62.271v379.345C162 836.28 193.728 865 232.678 865H233v49.723c0 21.766 23.407 39.411 52.5 39.411s52.5-17.645 52.5-39.411V865h365v49.723c0 21.766 23.407 39.411 52.5 39.411s52.5-17.645 52.5-39.411v-52.76c29-7.758 50-31.943 50-60.594V422.004c33-5.18 59-31.07 59-62.252v-50.044c0-31.182-26-57.072-59-62.252zM803 618H217V314.763C217 281.131 247.887 254 285.41 254h450.105C773.036 254 803 281.131 803 314.763V618zM352.649 121h315.14c19.232 0 34.824 15.604 34.824 35 0 19.395-15.591 35-34.824 35h-315.14c-19.233 0-34.824-15.605-34.824-35 0-19.396 15.591-35 34.824-35zM210.525 732.686c0-33.98 27.547-61.527 61.527-61.527s61.527 27.547 61.527 61.527-27.547 61.527-61.527 61.527-61.527-27.546-61.527-61.527z m538.262 61.527c-33.98 0-61.527-27.547-61.527-61.527s27.547-61.527 61.527-61.527 61.527 27.547 61.527 61.527-27.547 61.527-61.527 61.527z" fill="#F45656" p-id="5607"></path><path d="M735.514 254H285.41c-37.522 0-68.41 27.131-68.41 60.763V618h586V314.763C803 281.131 773.036 254 735.514 254zM352.649 191h315.14c19.232 0 34.824-15.605 34.824-35 0-19.396-15.591-35-34.824-35h-315.14c-19.233 0-34.824 15.604-34.824 35 0 19.395 15.591 35 34.824 35z" fill="#BDCCD4" p-id="5608"></path></svg>