<?xml version="1.0" standalone="no"?><!DOCTYPE svg PUBLIC "-//W3C//DTD SVG 1.1//EN" "http://www.w3.org/Graphics/SVG/1.1/DTD/svg11.dtd"><svg t="1726193461245" class="icon" viewBox="0 0 1024 1024" version="1.1" xmlns="http://www.w3.org/2000/svg" p-id="5629" xmlns:xlink="http://www.w3.org/1999/xlink" width="200" height="200"><path d="M896 397.5168C896 694.912 571.7504 1024 512 1024 452.2752 1024 128 697.856 128 397.5168 128 177.9712 299.9296 0 512 0c212.0704 0 384 177.9712 384 397.5168" fill="#FD8D38" p-id="5630"></path><path d="M359.68 476.8c28.672-4.3008 59.4944-12.9024 92.1088-25.088v-30.464c-17.92 7.168-35.4816 12.9024-53.0432 17.5616 19.3536-26.88 43.008-70.2464 71.68-129.7408l-29.7472-11.1104c-7.168 15.7696-14.336 30.8224-20.7872 44.8-11.8272 2.1504-23.6544 3.9424-35.84 5.376 17.2032-26.5216 33.6896-60.5696 50.176-102.8608l-31.5392-12.1856a642.048 642.048 0 0 1-44.0832 105.0112c-3.9424 6.4512-8.6016 10.3936-13.9776 12.544l8.2432 30.8224c17.92-2.8672 35.1232-5.376 51.968-7.8848-15.7696 29.7472-28.672 50.5344-39.0656 62.72-4.3008 3.9424-9.3184 7.168-15.0528 9.6768l8.96 30.8224z m114.3296-31.5392c38.3488-12.9024 72.0384-31.5392 101.0688-55.552a443.8272 443.8272 0 0 0 87.4496 50.8928l17.92-30.8224c-29.7472-12.1856-56.9856-26.1632-81.3568-42.2912 20.0704-20.7872 37.2736-45.5168 51.6096-73.472v-27.5968h-98.56c3.584-8.96 6.4512-18.6368 9.3184-28.672l-34.4064-4.3008c-10.752 39.0656-31.5392 72.0384-61.6448 99.2768l21.504 27.9552c9.3184-8.6016 18.2784-17.92 26.5216-27.5968 10.752 12.1856 22.5792 23.6544 35.4816 35.1232-26.5216 20.7872-57.344 36.1984-91.7504 46.9504l16.8448 30.1056z m98.2016-97.4848a329.0112 329.0112 0 0 1-41.216-39.0656c1.792-3.2256 3.584-6.4512 5.7344-9.6768h74.9056c-11.4688 17.92-24.7296 34.048-39.424 48.7424z m51.6096 141.9264l16.8448-25.8048a621.568 621.568 0 0 0-100.352-37.632l-17.92 26.1632c34.7648 9.3184 68.4544 21.504 101.4272 37.2736z m12.1856 76.6976l17.92-28.3136c-47.3088-21.504-99.6352-39.424-156.9792-54.4768l-19.3536 28.3136a918.9888 918.9888 0 0 1 158.4128 54.4768z m-282.4192-12.9024a707.072 707.072 0 0 0 113.2544-30.464v-34.7648c-33.6896 12.1856-73.1136 22.2208-118.272 29.3888l5.0176 35.84z" fill="#FFFFFF" p-id="5631"></path></svg>