<?xml version="1.0" standalone="no"?><!DOCTYPE svg PUBLIC "-//W3C//DTD SVG 1.1//EN" "http://www.w3.org/Graphics/SVG/1.1/DTD/svg11.dtd"><svg t="1726193384176" class="icon" viewBox="0 0 1024 1024" version="1.1" xmlns="http://www.w3.org/2000/svg" p-id="4475" id="mx_n_1726193384177" xmlns:xlink="http://www.w3.org/1999/xlink" width="200" height="200"><path d="M502.247619 924.038095c226.742857-204.8 341.333333-370.590476 341.333333-494.933333 0-187.733333-153.6-341.333333-341.333333-341.333333s-341.333333 153.6-341.333333 341.333333c0 124.342857 114.590476 290.133333 341.333333 494.933333z" p-id="4476"></path><path d="M502.247619 924.038095c226.742857-204.8 341.333333-370.590476 341.333333-494.933333 0-187.733333-153.6-341.333333-341.333333-341.333333s-341.333333 153.6-341.333333 341.333333c0 124.342857 114.590476 290.133333 341.333333 494.933333z" fill="#F56C6C" p-id="4477"></path><path d="M502.247619 404.72381m-209.67619 0a209.67619 209.67619 0 1 0 419.352381 0 209.67619 209.67619 0 1 0-419.352381 0Z" fill="#FFFFFF" p-id="4478"></path><path d="M426.666667 409.6c0 17.066667-2.438095 34.133333-4.876191 48.761905 7.314286 12.190476 14.628571 21.942857 24.380953 29.257143v-97.52381H390.095238v-24.380952h51.2v-36.571429h-46.323809v-24.380952h46.323809v-39.009524h26.819048v39.009524H512v24.380952h-43.885714V365.714286h46.323809v26.819047h-41.447619v34.133334H512v24.380952h-39.009524v48.761905c19.504762 4.87619 51.2 4.87619 99.961905 4.87619 34.133333 0 60.952381 0 78.019048-2.438095l-4.876191 26.819048h-65.828571c-68.266667 0-112.152381-4.87619-129.219048-12.190477-12.190476-7.314286-24.380952-17.066667-34.133333-29.257142-4.87619 17.066667-9.752381 31.695238-14.628572 48.761904l-21.942857-19.504762c14.628571-34.133333 21.942857-70.704762 21.942857-112.15238l24.380953 4.87619z m209.67619 63.390476c-4.87619 7.314286-14.628571 9.752381-29.257143 9.752381h-51.2c-17.066667 0-26.819048-9.752381-26.819047-26.819047v-97.52381h78.019047v-48.761905h-80.457143v-24.380952H633.904762v102.4h-78.019048v60.952381c0 7.314286 2.438095 9.752381 9.752381 9.752381h36.571429c7.314286 0 12.190476-2.438095 14.628571-9.752381 2.438095-4.87619 2.438095-14.628571 4.876191-31.695238l26.819047 9.752381c-4.87619 24.380952-9.752381 39.009524-12.190476 46.323809z" fill="#F56C6C" p-id="4479"></path></svg>