<?xml version="1.0" standalone="no"?><!DOCTYPE svg PUBLIC "-//W3C//DTD SVG 1.1//EN" "http://www.w3.org/Graphics/SVG/1.1/DTD/svg11.dtd"><svg t="1726208811004" class="icon" viewBox="0 0 1034 1024" version="1.1" xmlns="http://www.w3.org/2000/svg" p-id="17032" xmlns:xlink="http://www.w3.org/1999/xlink" width="201.953125" height="200"><path d="M760.275088 174.618947l-265.880702-71.141052C355.705263 66.110877 213.423158 148.749474 176.05614 287.438596l-68.985263 258.694737c-37.367018 138.689123 45.271579 281.689825 183.960702 318.338246l265.880702 71.141053c138.689123 37.367018 281.689825-45.271579 318.338245-183.960702l68.985263-258.694737c37.367018-138.689123-45.271579-280.971228-183.960701-318.338246z" fill="#FFBA13" opacity=".302" p-id="17033"></path><path d="M663.264561 147.312281h-258.694736c-135.09614 0-244.322807 109.226667-244.322807 244.322807v251.508772c0 135.09614 109.226667 244.322807 244.322807 244.322807h258.694736c135.09614 0 244.322807-109.226667 244.322807-244.322807v-251.508772c-0.718596-135.09614-109.945263-244.322807-244.322807-244.322807z" fill="#FFBA13" p-id="17034"></path><path d="M339.89614 360.735439v247.197193c0 25.150877 20.120702 45.990175 45.271579 45.990175h15.809123l-26.58807 45.271579c-8.623158 14.37193-3.592982 33.055439 10.060351 41.678596 5.030175 2.874386 10.060351 4.311579 15.809123 4.311579 10.060351 0 20.120702-5.030175 25.869473-15.090526L471.399298 653.922807v-0.718596h128.628772v0.718596l45.271579 76.171228c5.748772 9.341754 15.809123 15.090526 25.869474 15.090526 5.030175 0 10.778947-1.437193 15.809123-4.311579 14.37193-8.623158 18.683509-27.306667 10.06035-41.678596L671.169123 653.922807h15.809123c25.150877 0 45.271579-20.120702 45.271579-45.990175V360.735439c0-96.29193-392.353684-96.29193-392.353685 0z m90.543158 232.106666c-22.995088 0-41.678596-18.683509-41.678596-41.678596 0-22.995088 18.683509-41.678596 41.678596-41.678597 22.995088 0 41.678596 18.683509 41.678597 41.678597 0 22.995088-18.683509 41.678596-41.678597 41.678596z m211.267369 0c-22.995088 0-41.678596-18.683509-41.678597-41.678596 0-22.995088 18.683509-41.678596 41.678597-41.678597 22.995088 0 41.678596 18.683509 41.678596 41.678597 0 22.995088-18.683509 41.678596-41.678596 41.678596z m45.271579-121.442807h-301.810527V395.22807c0-16.527719 13.653333-30.181053 30.181053-30.181052h241.448421c16.527719 0 30.181053 13.653333 30.181053 30.181052v76.171228z" fill="#FFFFFF" p-id="17035"></path></svg>